<svg xmlns="http://www.w3.org/2000/svg" version="1.1" xmlns:xlink="http://www.w3.org/1999/xlink" xmlns:svgjs="http://svgjs.dev/svgjs" width="1500" height="469" viewBox="0 0 1500 469"><g transform="matrix(1,0,0,1,-0.9090909090909918,-1.3852792343855924)"><svg viewBox="0 0 396 124" data-background-color="#eae5e1" preserveAspectRatio="xMidYMid meet" height="469" width="1500" xmlns="http://www.w3.org/2000/svg" xmlns:xlink="http://www.w3.org/1999/xlink"><g id="tight-bounds" transform="matrix(1,0,0,1,0.2400000000000091,0.3662571962981076)"><svg viewBox="0 0 395.52 123.26748560740378" height="123.26748560740378" width="395.52"><g><svg viewBox="0 0 644.9350338271605 200.99999999999997" height="123.26748560740378" width="395.52"><g><rect width="8.350095555555555" height="200.99999999999997" x="248.3062962962963" y="0" fill="#edc317" opacity="1" stroke-width="0" stroke="transparent" fill-opacity="1" class="rect-yte-0" data-fill-palette-color="primary" rx="1%" id="yte-0" data-palette-color="#edc317"></rect></g><g transform="matrix(1,0,0,1,278.5152807407407,0.4999999999999858)"><svg viewBox="0 0 366.41975308641975 200" height="200" width="366.41975308641975"><g id="textblocktransform"><svg viewBox="0 0 366.41975308641975 200" height="200" width="366.41975308641975" id="textblock"><g><svg viewBox="0 0 366.41975308641975 200" height="200" width="366.41975308641975"><g transform="matrix(1,0,0,1,0,0)"><svg width="366.41975308641975" viewBox="3.6000000000000014 -37.5 148.4 78" height="200" data-palette-color="#edc317"><svg></svg><svg></svg><g class="wordmark-text-0" data-fill-palette-color="primary" id="text-0"><path d="M36-13.75v0c0 1.9-0.35 3.673-1.05 5.32-0.7 1.653-1.677 3.113-2.93 4.38-1.247 1.267-2.693 2.26-4.34 2.98-1.653 0.713-3.43 1.07-5.33 1.07v0h-18.75v-37.5h5v32.5h13.75c1.6 0 3.06-0.4 4.38-1.2 1.313-0.8 2.353-1.86 3.12-3.18 0.767-1.313 1.15-2.77 1.15-4.37v0c0-1.6-0.383-3.06-1.15-4.38-0.767-1.313-1.807-2.37-3.12-3.17-1.32-0.8-2.78-1.2-4.38-1.2v0h-11.25v-5h11.25c1.9 0 3.677 0.357 5.33 1.07 1.647 0.72 3.093 1.713 4.34 2.98 1.253 1.267 2.23 2.727 2.93 4.38 0.7 1.647 1.05 3.42 1.05 5.32zM73.4-27.5v27.5h-18.75c-1.9 0-3.673-0.357-5.32-1.07-1.653-0.72-3.103-1.713-4.35-2.98-1.253-1.267-2.23-2.727-2.93-4.38-0.7-1.647-1.05-3.42-1.05-5.32v0-13.75h5v13.75c0 1.6 0.393 3.057 1.18 4.37 0.78 1.32 1.82 2.37 3.12 3.15 1.3 0.787 2.75 1.197 4.35 1.23v0h13.75v-22.5zM111.6-27.5v5l-24.1 17.5h24.1v5h-32.5v-5l24.05-17.5h-24.05v-5zM148.3-27.5v5l-24.1 17.5h24.1v5h-32.5v-5l24.05-17.5h-24.05v-5z" fill="#edc317" fill-rule="nonzero" stroke="none" stroke-width="1" stroke-linecap="butt" stroke-linejoin="miter" stroke-miterlimit="10" stroke-dasharray="" stroke-dashoffset="0" font-family="none" font-weight="none" font-size="none" text-anchor="none" style="mix-blend-mode: normal" data-fill-palette-color="primary" opacity="1"></path><path transform="translate(0,40.5)" d="M31.1-37.5v5h-13.85c-1.6 0-3.05 0.4-4.35 1.2-1.3 0.8-2.34 1.857-3.12 3.17-0.787 1.32-1.18 2.78-1.18 4.38v0 23.75h-5v-25c0-1.767 0.367-3.41 1.1-4.93 0.733-1.513 1.743-2.83 3.03-3.95 1.28-1.113 2.737-1.993 4.37-2.64 1.633-0.653 3.35-0.98 5.15-0.98v0zM31.1-25v5h-20v-5zM41.75-33.75v0c0 1.033-0.367 1.917-1.1 2.65-0.733 0.733-1.617 1.1-2.65 1.1v0c-1.033 0-1.917-0.367-2.65-1.1-0.733-0.733-1.1-1.617-1.1-2.65v0c0-1.033 0.367-1.917 1.1-2.65 0.733-0.733 1.617-1.1 2.65-1.1v0c1.033 0 1.917 0.367 2.65 1.1 0.733 0.733 1.1 1.617 1.1 2.65zM40.5-27.5v27.5h-5v-27.5zM52.7-22.5v22.5h-5v-27.5h18.75c1.9 0 3.677 0.357 5.33 1.07 1.647 0.72 3.097 1.713 4.35 2.98 1.247 1.267 2.22 2.727 2.92 4.38 0.7 1.647 1.05 3.42 1.05 5.32v0 13.75h-5v-13.75c0-1.6-0.383-3.06-1.15-4.38-0.767-1.313-1.807-2.37-3.12-3.17-1.32-0.8-2.78-1.2-4.38-1.2v0zM117.5-37.5v37.5h-5v-22.5h-13.75c-1.6 0-3.05 0.39-4.35 1.17-1.3 0.787-2.34 1.847-3.12 3.18-0.787 1.333-1.18 2.8-1.18 4.4v0c0 1.6 0.393 3.057 1.18 4.37 0.78 1.32 1.82 2.37 3.12 3.15 1.3 0.787 2.75 1.197 4.35 1.23v0h11.25v5h-11.25c-1.9 0-3.677-0.357-5.33-1.07-1.647-0.72-3.093-1.713-4.34-2.98-1.253-1.267-2.23-2.727-2.93-4.38-0.7-1.647-1.05-3.42-1.05-5.32v0c0-1.9 0.35-3.673 1.05-5.32 0.7-1.653 1.677-3.113 2.93-4.38 1.247-1.267 2.693-2.26 4.34-2.98 1.653-0.713 3.43-1.07 5.33-1.07v0h13.75v-10zM152-27.5v5h-18.75c-1.033 0-1.917 0.367-2.65 1.1-0.733 0.733-1.1 1.617-1.1 2.65v0 18.75h-5v-18.75c0-1.633 0.39-3.11 1.17-4.43 0.787-1.313 1.847-2.363 3.18-3.15 1.333-0.78 2.8-1.17 4.4-1.17v0z" fill="#edc317" fill-rule="nonzero" stroke="none" stroke-width="1" stroke-linecap="butt" stroke-linejoin="miter" stroke-miterlimit="10" stroke-dasharray="" stroke-dashoffset="0" font-family="none" font-weight="none" font-size="none" text-anchor="none" style="mix-blend-mode: normal" data-fill-palette-color="primary" opacity="1"></path></g></svg></g></svg></g></svg></g></svg></g><g transform="matrix(1,0,0,1,0,27.885405831363258)"><svg viewBox="0 0 226.4474074074074 145.22918833727346" height="145.22918833727346" width="226.4474074074074"><g><svg xmlns="http://www.w3.org/2000/svg" xmlns:xlink="http://www.w3.org/1999/xlink" version="1.1" x="0" y="0" viewBox="0.7 18.4 98.7 63.300000000000004" enable-background="new 0 0 100 100" xml:space="preserve" height="145.22918833727346" width="226.4474074074074" class="icon-icon-0" data-fill-palette-color="accent" id="icon-0"><path d="M25.7 35.7V38.1C32.6 37 44 34.1 52 26.5 52.1 25.1 53.3 24 54.8 24.2 56.1 24.4 57 25.5 57 26.8V41.3C60.2 42.5 62.5 45.6 62.5 49.2S60.2 55.9 57 57.1V71.7C57 73 56.1 74.2 54.8 74.3 53.3 74.5 52.1 73.4 52 72 44 64.5 32.7 61.5 25.8 60.4V62.8H19.9L22.4 72.7C22.8 74.3 24.3 75.4 25.9 75.4 26.6 75.4 27.2 75.9 27.3 76.5L28.2 80.4C28.4 81.1 27.9 81.7 27.2 81.7H16.9C16.4 81.7 15.9 81.3 15.8 80.8L11.4 62.8H10C6.9 62.8 4.3 60.3 4.3 57.1V54.9H2.6C1.6 54.9 0.7 54 0.7 53V45.9C0.7 44.9 1.6 44 2.6 44H4.3V41.5C4.3 38.4 6.8 35.8 10 35.8H25.7zM99.3 49.2C99.3 54 95.4 57.9 90.6 57.9 86.9 57.9 83.7 55.5 82.5 52.2H67.2V46.2H82.5C83.7 42.9 86.9 40.5 90.6 40.5 95.4 40.5 99.3 44.4 99.3 49.2M93.3 49.2C93.3 47.7 92.1 46.5 90.6 46.5S88 47.7 88 49.2 89.2 51.9 90.7 51.9 93.3 50.7 93.3 49.2M90.7 18.4C95.5 18.4 99.4 22.3 99.4 27.1S95.5 35.8 90.7 35.8C87 35.8 83.8 33.4 82.6 30.1H79.5L69.5 40.3 65.2 36.1 77 24.1H82.6C83.8 20.8 86.9 18.4 90.7 18.4M90.7 24.4C89.2 24.4 88 25.6 88 27.1S89.2 29.8 90.7 29.8 93.4 28.6 93.4 27.1C93.3 25.6 92.1 24.4 90.7 24.4M99.3 71.3C99.3 76.1 95.4 80 90.6 80 86.9 80 83.7 77.6 82.5 74.3H76.9L65.1 62.3 69.4 58.1 79.4 68.3H82.5C83.7 65 86.9 62.6 90.6 62.6 95.4 62.7 99.3 66.6 99.3 71.3M93.3 71.3C93.3 69.8 92.1 68.6 90.6 68.6S88 69.9 88 71.3C88 72.8 89.2 74 90.7 74S93.3 72.8 93.3 71.3" fill="#fe6d34" data-fill-palette-color="accent"></path></svg></g></svg></g></svg></g><defs></defs></svg><rect width="395.52" height="123.26748560740378" fill="none" stroke="none" visibility="hidden"></rect></g></svg></g></svg>